<?xml version="1.0" encoding="UTF-8" standalone="no"?>
<!-- Created with Inkscape (http://www.inkscape.org/) -->

<svg
   width="234.75763"
   height="37.22644"
   viewBox="0 0 62.112955 9.8494956"
   version="1.1"
   id="svg1"
   xml:space="preserve"
   xmlns="http://www.w3.org/2000/svg"
   xmlns:svg="http://www.w3.org/2000/svg"><defs
     id="defs1" /><g
     id="layer1"
     transform="translate(-81.179795,-163.16414)"><g
       id="g8-7-6-2-8-2-3"
       transform="translate(52.440811,120.1765)"><path
         id="polygon4-1-9-3-8-2-1-3"
         style="display:inline;opacity:1;fill:#ff395c;fill-opacity:1;stroke-width:0.270383"
         class="st2"
         d="m 61.766687,45.110566 v 2.117701 h -2.117701 v 1.46451 h 2.117701 v 2.1177 h 1.46451 v -2.1177 h 2.09858 v -1.46451 h -2.09858 v -2.117701 z" /><path
         style="font-stretch:semi-expanded;font-size:10.8752px;line-height:0px;font-family:'Molde Semi Expanded';-inkscape-font-specification:'Molde Semi Expanded,  Semi-Expanded';letter-spacing:-0.47625px;word-spacing:0px;baseline-shift:baseline;display:inline;overflow:visible;opacity:1;vector-effect:none;paint-order:stroke markers fill;enable-background:accumulate;stop-color:#000000;stop-opacity:1"
         d="m 73.734871,46.450036 q 0.337131,0 0.804765,-0.087 v 1.141896 q -0.674263,0.119627 -1.261524,0.119627 -1.185396,0 -1.729156,-0.478509 -0.54376,-0.478508 -0.54376,-1.500777 V 43.143975 H 70.13518 v -1.044019 h 0.870016 v -1.228898 h 1.663905 v 1.228898 h 1.848784 v 1.044019 h -1.848784 v 2.414294 q 0,0.489384 0.261005,0.696013 0.261005,0.195754 0.804765,0.195754 z m 4.656834,-4.437082 q 0.467634,0 0.761264,0.087 v 1.315899 q -0.326256,-0.119627 -0.750389,-0.119627 -0.445883,0 -0.83739,0.217504 -0.380632,0.217504 -0.609011,0.663387 -0.22838,0.445883 -0.22838,1.076645 v 0.228379 0 2.055413 h -1.663905 v -5.4376 h 1.435526 v 1.141896 q 0.293631,-0.598136 0.772139,-0.913517 0.478509,-0.315381 1.120146,-0.315381 z m 3.89559,0 q 2.881928,0 2.881928,1.92491 v 3.599692 h -1.500778 v -0.696013 q -0.326256,0.380632 -0.891766,0.587261 -0.554636,0.195753 -1.3159,0.195753 -1.076645,0 -1.685656,-0.435008 -0.609011,-0.435008 -0.609011,-1.207147 v -0.01087 q 0,-0.739514 0.52201,-1.131021 0.522009,-0.402382 1.609529,-0.478509 L 83.505317,44.2315 v -0.28276 q 0,-0.456759 -0.326256,-0.652512 -0.315381,-0.206629 -0.957018,-0.206629 -0.630761,0 -0.978768,0.206629 -0.348006,0.206628 -0.348006,0.576385 v 0.0435 H 79.35099 v -0.0435 q 0,-0.935267 0.717764,-1.392025 0.717763,-0.467634 2.218541,-0.467634 z m -0.337132,4.534958 q 0.739514,0 1.141896,-0.304505 0.413258,-0.315381 0.413258,-0.859141 V 45.05801 l -1.65303,0.087 q -1.022269,0.05438 -1.022269,0.685137 v 0.02175 q 0,0.326256 0.29363,0.511134 0.304506,0.184878 0.826515,0.184878 z m 8.278277,-2.512171 q -0.05438,-0.467633 -0.413257,-0.706888 -0.358882,-0.239254 -0.967893,-0.239254 -0.706888,0 -1.08752,0.424133 -0.380632,0.424132 -0.380632,1.294148 v 0.01088 q 0,0.85914 0.380632,1.294148 0.391507,0.435008 1.131021,0.435008 0.587261,0 0.924392,-0.250129 0.348006,-0.261005 0.413257,-0.750389 v -0.05438 h 1.555154 v 0.05438 q -0.05438,1.000518 -0.804765,1.544278 -0.739513,0.532885 -2.077163,0.532885 -1.544278,0 -2.403419,-0.706888 -0.859141,-0.717763 -0.859141,-2.098913 v -0.01088 q 0,-1.370275 0.848265,-2.077163 0.859141,-0.717763 2.359919,-0.717763 1.370275,0 2.120664,0.54376 0.761264,0.532885 0.81564,1.468152 v 0.06525 H 90.22844 Z m 6.549135,1.576904 h 1.58778 l -0.01088,0.06525 q -0.09788,0.880892 -0.85914,1.413776 -0.761264,0.532885 -2.098914,0.532885 -1.544278,0 -2.42517,-0.728638 -0.880891,-0.739514 -0.880891,-2.088039 v -0.01087 q 0,-1.348525 0.870016,-2.066288 0.870016,-0.717763 2.349043,-0.717763 1.446402,0 2.251167,0.696013 0.804765,0.696013 0.81564,2.120664 v 0.304505 h -4.513208 q 0.06525,0.728639 0.467633,1.08752 0.402383,0.348007 1.08752,0.348007 0.587261,0 0.935268,-0.25013 0.348006,-0.250129 0.424132,-0.685137 z m -1.446401,-2.544797 q -0.598136,0 -0.967893,0.293631 -0.369757,0.29363 -0.478509,0.891766 h 2.838427 q -0.06525,-0.587261 -0.435008,-0.880891 -0.358881,-0.304506 -0.957017,-0.304506 z"
         id="path2"
         transform="scale(0.9235152,1.0828192)" /><g
         id="g6-9-8-7-4-5-1"
         style="display:inline;opacity:1"><g
           id="g5-8-2-8-9-7-3"
           style="opacity:1"><rect
             x="38.669819"
             y="43.002129"
             class="st0"
             width="9.6499996"
             height="9.8349991"
             id="rect1-3-5-6-9-1-1-6-8"
             style="display:inline;opacity:1;fill:#000000;fill-opacity:1;stroke-width:0.261888" /><polygon
             class="st2"
             points="65.74,26.35 65.74,41.97 72.19,41.97 72.19,26.35 79.43,26.35 79.43,21.34 58.5,21.34 58.5,26.35 "
             id="polygon4-14-4-5-1-5-2-1-7"
             style="display:inline;fill:#ffffff"
             transform="matrix(0.25513617,0,0,0.26417838,25.882443,39.521433)" /></g><g
           id="g3-2-0-3-8-5-8-4"
           transform="matrix(0.99484537,0,0,1.0139175,-48.774625,-41.348901)"
           style="display:inline;opacity:1"><rect
             x="77.915237"
             y="83.178886"
             class="st0"
             width="9.6999998"
             height="9.6999998"
             id="rect1-3-2-5-6-0-9-2"
             style="display:inline;fill:#000000;fill-opacity:1;stroke-width:0.260757" /><polygon
             class="st2"
             points="28.76,37.01 27.52,35.77 27.52,21.28 21.07,21.28 21.07,38.26 25.14,42.01 38.36,42.01 41.77,38.26 41.77,21.28 35.32,21.28 35.32,35.95 34.27,37.01 "
             id="polygon3-2-8-9-1-8-2-7"
             style="display:inline;opacity:1;fill:#ffffff;fill-opacity:1"
             transform="matrix(0.25930765,0,0,0.25930765,74.622829,79.802041)" /></g><g
           id="g4-6-8-2-3-7-7"
           style="opacity:1"><rect
             x="48.600647"
             y="42.98859"
             class="st0"
             width="9.6499996"
             height="9.8349991"
             id="rect1-3-9-0-4-4-9-9-9"
             style="display:inline;opacity:1;fill:#000000;fill-opacity:1;stroke-width:0.261888" /><path
             class="st2"
             d="m 55.125953,45.172263 v 0 l -2.754659,0.0025 V 45.159 h -1.654333 v 5.45 h 1.654333 v -1.464573 h 2.752095 l 0.0077,0.0079 0.925914,-0.87453 V 46.00723 Z m -2.754659,1.322329 h 1.710761 l 0.318043,0.326633 v 0.687505 l -0.310348,0.318729 h -1.718456 z"
             id="path4-2-2-0-2-3-5-3"
             style="display:inline;opacity:1;fill:#ffffff;fill-opacity:1;stroke-width:0.259927" /></g></g></g></g><style
     type="text/css"
     id="style1">
	.st0{fill:#B50D30;}
	.st1{fill:#1F1B1C;}
	.st2{fill:#FFFFFF;}
	.st3{fill:#222221;}
</style></svg>
